{
    "asset": {
        "version": "2.0",
        "generator": "Open Asset Import Library (assimp v5.4.0)"
    },
    "extensionsUsed": [
        "KHR_materials_volume",
        "FB_ngon_encoding"
    ],
    "accessors": [
        {
            "bufferView": 0,
            "byteOffset": 0,
            "componentType": 5126,
            "count": 5604,
            "type": "VEC3",
            "max": [
                0.3159080743789673,
                0.981377124786377,
                0.26254796981811523
            ],
            "min": [
                -0.1964242160320282,
                -0.005799531936645508,
                -0.2938864231109619
            ]
        },
        {
            "bufferView": 1,
            "byteOffset": 0,
            "componentType": 5126,
            "count": 5604,
            "type": "VEC3",
            "max": [
                0.9999550580978394,
                0.9992114901542664,
                0.9999355673789978
            ],
            "min": [
                -0.9999884366989136,
                -0.9999120831489563,
                -0.9999289512634277
            ]
        },
        {
            "bufferView": 2,
            "byteOffset": 0,
            "componentType": 5126,
            "count": 5604,
            "type": "VEC2",
            "max": [
                1.0000001192092896,
                1.0
            ],
            "min": [
                -6.1457745559323484e-9,
                0.04364138841629028
            ]
        },
        {
            "bufferView": 3,
            "byteOffset": 0,
            "componentType": 5125,
            "count": 23115,
            "type": "SCALAR",
            "max": [
                5603
            ],
            "min": [
                0
            ]
        }
    ],
    "buffers": [
        {
            "byteLength": 271788,
            "uri": "glb_0.bin"
        }
    ],
    "bufferViews": [
        {
            "buffer": 0,
            "byteOffset": 0,
            "byteLength": 67248,
            "target": 34962
        },
        {
            "buffer": 0,
            "byteOffset": 67248,
            "byteLength": 67248,
            "target": 34962
        },
        {
            "buffer": 0,
            "byteOffset": 134496,
            "byteLength": 44832,
            "target": 34962
        },
        {
            "buffer": 0,
            "byteOffset": 179328,
            "byteLength": 92460,
            "target": 34963
        }
    ],
    "images": [
        {
            "uri": "textures/image_1.png"
        },
        {
            "uri": "textures/image_0.png"
        },
        {
            "uri": "textures/image_2.png"
        }
    ],
    "materials": [
        {
            "name": "Wood",
            "pbrMetallicRoughness": {
                "baseColorTexture": {
                    "index": 0
                },
                "metallicRoughnessTexture": {
                    "index": 1
                },
                "metallicFactor": 0.0
            },
            "normalTexture": {
                "index": 2
            },
            "doubleSided": true
        }
    ],
    "meshes": [
        {
            "name": "meshes[0]",
            "primitives": [
                {
                    "mode": 4,
                    "material": 0,
                    "indices": 3,
                    "attributes": {
                        "POSITION": 0,
                        "NORMAL": 1,
                        "TEXCOORD_0": 2
                    }
                }
            ]
        }
    ],
    "nodes": [
        {
            "name": "glb",
            "children": [
                1
            ]
        },
        {
            "name": "Chair",
            "mesh": 0,
            "extras": {
                "name": "Chair"
            }
        }
    ],
    "samplers": [
        {
            "magFilter": 9729,
            "minFilter": 9987
        },
        {
            "magFilter": 9729,
            "minFilter": 9987
        },
        {
            "magFilter": 9729,
            "minFilter": 9987
        }
    ],
    "scenes": [
        {
            "nodes": [
                0
            ]
        }
    ],
    "textures": [
        {
            "source": 0,
            "sampler": 0
        },
        {
            "source": 1,
            "sampler": 1
        },
        {
            "source": 2,
            "sampler": 2
        }
    ],
    "scene": 0
}